<?xml version="1.0" encoding="iso-8859-1"?>
<!-- Uploaded to: SVG Repo, www.svgrepo.com, Generator: SVG Repo Mixer Tools -->
<svg version="1.1" id="Layer_1" xmlns="http://www.w3.org/2000/svg" xmlns:xlink="http://www.w3.org/1999/xlink" 
	 viewBox="0 0 512 512" xml:space="preserve">
<polygon style="fill:#F2F2F2;" points="48.992,0 48.992,512 381.616,512 463.008,430.624 463.008,0 "/>
<polyline style="fill:#B5B5B5;" points="463.008,430.512 381.568,430.512 381.568,512 "/>
<polygon style="fill:#32BEA6;" points="167.424,159.84 112.352,126.832 128.8,99.408 154.512,114.8 187.408,50.528 215.904,65.12 
	"/>
<g>
	<rect x="250.208" y="83.488" style="fill:#999999;" width="145.28" height="16"/>
	<rect x="250.208" y="116.816" style="fill:#999999;" width="145.28" height="16"/>
</g>
<polygon style="fill:#32BEA6;" points="167.424,291.184 112.352,258.176 128.8,230.752 154.512,246.144 187.408,181.872 
	215.904,196.464 "/>
<g>
	<rect x="250.208" y="214.832" style="fill:#999999;" width="145.28" height="16"/>
	<rect x="250.208" y="248.16" style="fill:#999999;" width="145.28" height="16"/>
</g>
<polygon style="fill:#32BEA6;" points="167.424,422.528 112.352,389.52 128.8,362.08 154.512,377.488 187.408,313.216 
	215.904,327.808 "/>
<g>
	<rect x="250.208" y="346.176" style="fill:#999999;" width="145.28" height="16"/>
	<rect x="250.208" y="379.504" style="fill:#999999;" width="145.28" height="16"/>
</g>
</svg>