<svg xmlns="http://www.w3.org/2000/svg" xml:space="preserve" width="1.70666in" height="1.70666in" version="1.1" style="shape-rendering:geometricPrecision; text-rendering:geometricPrecision; image-rendering:optimizeQuality; fill-rule:evenodd; clip-rule:evenodd" viewBox="0 0 1706.66 1706.66" xmlns:xlink="http://www.w3.org/1999/xlink" xmlns:xodm="http://www.corel.com/coreldraw/odm/2003">
 <defs>
  <style type="text/css">
   
    .fil0 {fill:black}
   
  </style>
 </defs>
 <g id="Layer_x0020_1">
  <metadata id="CorelCorpID_0Corel-Layer"></metadata>
  <path class="fil0" d="M1455.03 1706.65l-1203.4 0c-11.04,0 -20,-8.97 -20,-20l0 -1666.64c0,-11.04 8.96,-20 20,-20l1203.4 0c11.04,0 20,8.96 20,20l0 1666.64c0.02,11.04 -8.96,20 -20,20zm-1183.4 -40l1163.4 0 0 -1626.64 -1163.4 0 0 1626.64z" id="id_101" style="fill: rgb(255, 255, 255);"></path>
  <path class="fil0" d="M508.9 497.94c-14.24,0 -39.35,-31.06 -56.13,-47.85 -18.63,-18.63 9.66,-46.91 28.3,-28.3l27.86 27.86 93.4 -93.39c18.63,-18.63 46.89,9.68 28.28,28.28l-107.54 107.53c-3.92,3.91 -9.03,5.86 -14.16,5.86z" id="id_102" style="fill: rgb(255, 255, 255);"></path>
  <path class="fil0" d="M676.06 578.55l-268.78 0c-11.04,0 -20,-8.96 -20,-20l0 -268.76c0,-11.04 8.96,-20 20,-20l268.78 0c11.04,0 20,8.96 20,20l0 268.77c0,11.04 -8.94,19.98 -20,19.98zm-248.78 -40l228.78 0 0 -228.76 -228.78 0 0 228.76z" id="id_103" style="fill: rgb(255, 255, 255);"></path>
  <path class="fil0" d="M508.9 927.12c-14.22,0 -39.37,-31.1 -56.13,-47.86 -18.63,-18.63 9.67,-46.93 28.28,-28.3l27.86 27.86 93.4 -93.4c18.63,-18.63 46.9,9.67 28.28,28.28l-107.54 107.54c-3.91,3.91 -9.02,5.87 -14.14,5.87z" id="id_104" style="fill: rgb(255, 255, 255);"></path>
  <path class="fil0" d="M676.06 1007.72l-268.78 0c-11.04,0 -20,-8.97 -20,-20l0 -268.77c0,-11.04 8.96,-20 20,-20l268.78 0c11.04,0 20,8.96 20,20l0 268.77c0,11.05 -8.94,20 -20,20zm-248.78 -40.02l228.78 0 0 -228.76 -228.78 0 0 228.76z" id="id_105" style="fill: rgb(255, 255, 255);"></path>
  <path class="fil0" d="M508.9 1356.26c-14.22,0 -39.37,-31.1 -56.13,-47.86 -18.64,-18.64 9.69,-46.91 28.28,-28.3l27.86 27.87 93.4 -93.4c18.64,-18.64 46.89,9.7 28.28,28.3l-107.54 107.52c-3.91,3.91 -9.02,5.87 -14.14,5.87z" id="id_106" style="fill: rgb(255, 255, 255);"></path>
  <path class="fil0" d="M676.06 1436.89l-268.78 0c-11.04,0 -20,-8.97 -20,-20l0 -268.77c0,-11.04 8.96,-20 20,-20l268.78 0c11.04,0 20,8.97 20,20l0 268.77c0,11.03 -8.94,20 -20,20zm-248.78 -40.01l228.78 0 0 -228.76 -228.78 0 0 228.76z" id="id_107" style="fill: rgb(255, 255, 255);"></path>
  <path class="fil0" d="M1299.37 362.93l-507.05 0c-26.33,0 -26.33,-40 0,-40l507.05 0c26.33,0 26.33,40 0,40z" id="id_108" style="fill: rgb(255, 255, 255);"></path>
  <path class="fil0" d="M1299.37 525.43l-507.05 0c-26.33,0 -26.33,-40 0,-40l507.05 0c26.33,0 26.33,40 0,40z" id="id_109" style="fill: rgb(255, 255, 255);"></path>
  <path class="fil0" d="M1299.37 792.07l-507.05 0c-26.33,0 -26.33,-40 0,-40l507.05 0c26.33,0 26.33,40 0,40z" id="id_110" style="fill: rgb(255, 255, 255);"></path>
  <path class="fil0" d="M1299.37 954.59l-507.05 0c-26.33,0 -26.33,-40 0,-40l507.05 0c26.32,0 26.32,40 0,40z" id="id_111" style="fill: rgb(255, 255, 255);"></path>
  <path class="fil0" d="M1299.37 1221.24l-507.05 0c-26.33,0 -26.33,-40 0,-40l507.05 0c26.32,0 26.32,40 0,40z" id="id_112" style="fill: rgb(255, 255, 255);"></path>
  <path class="fil0" d="M1299.37 1383.75l-507.05 0c-26.33,0 -26.33,-40 0,-40l507.05 0c26.32,0 26.32,40 0,40z" id="id_113" style="fill: rgb(255, 255, 255);"></path>
 </g>
</svg>