<?xml version="1.0" encoding="iso-8859-1"?>
<!-- Uploaded to: SVG Repo, www.svgrepo.com, Generator: SVG Repo Mixer Tools -->
<svg height="800px" width="800px" version="1.1" id="Layer_1" xmlns="http://www.w3.org/2000/svg" xmlns:xlink="http://www.w3.org/1999/xlink" 
	 viewBox="0 0 512 512" xml:space="preserve">
<path style="fill:#C9E3F7;" d="M255.992,502.511c-116.508,0-211.295-94.787-211.295-211.295S139.484,79.921,255.992,79.921
	s211.295,94.787,211.295,211.295S372.502,502.511,255.992,502.511z M255.992,118.338c-95.325,0-172.878,77.553-172.878,172.878
	s77.553,172.878,172.878,172.878S428.87,386.541,428.87,291.216S351.318,118.338,255.992,118.338z"/>
<path style="fill:#78B9EB;" d="M255.992,79.921v38.417c95.325,0,172.878,77.553,172.878,172.878s-77.553,172.878-172.878,172.878
	v38.417c116.508,0,211.295-94.787,211.295-211.295S372.502,79.921,255.992,79.921z"/>
<circle style="fill:#FF9811;" cx="255.987" cy="99.129" r="89.64"/>
<path style="fill:#FF5023;" d="M255.992,9.489c49.507,0,89.64,40.133,89.64,89.64s-40.133,89.64-89.64,89.64"/>
<circle style="fill:#FFDA44;" cx="89.64" cy="387.259" r="89.64"/>
<path style="fill:#FF9811;" d="M89.64,297.619c49.507,0,89.64,40.133,89.64,89.64s-40.133,89.64-89.64,89.64"/>
<circle style="fill:#FF5023;" cx="422.36" cy="387.259" r="89.64"/>
<path style="fill:#D80027;" d="M422.358,297.619c49.507,0,89.64,40.133,89.64,89.64s-40.133,89.64-89.64,89.64"/>
</svg>