<svg xmlns="http://www.w3.org/2000/svg" viewBox="0 0 32 32"><title>University</title><g id="University"><path d="M28.822,10.622,17.285,5.283a3.047,3.047,0,0,0-2.57,0L3.178,10.622a2.03,2.03,0,0,0,0,3.685L7,16.076v6.558a3.021,3.021,0,0,0,1.813,2.758A18.946,18.946,0,0,0,16,27a18.946,18.946,0,0,0,7.187-1.608A3.021,3.021,0,0,0,25,22.634V16.076l1-.463V21a1,1,0,0,0,2,0V14.688l.821-.38a2.03,2.03,0,0,0,0-3.686ZM15.555,7.1a1.057,1.057,0,0,1,.89,0l11.537,5.394-11.537,5.34a1.057,1.057,0,0,1-.89,0l-11.537-5.4ZM23,22.634a1.017,1.017,0,0,1-.617.926A16.824,16.824,0,0,1,16,25a16.833,16.833,0,0,1-6.384-1.44A1.018,1.018,0,0,1,9,22.634V17l5.715,2.645a3.039,3.039,0,0,0,2.57,0L23,17Z" id="id_101" style="fill: rgb(255, 255, 255);"></path></g></svg>