<?xml version="1.0" encoding="iso-8859-1"?>
<!-- Generator: Adobe Illustrator 22.0.1, SVG Export Plug-In . SVG Version: 6.00 Build 0)  -->
<svg version="1.1" xmlns="http://www.w3.org/2000/svg" xmlns:xlink="http://www.w3.org/1999/xlink" x="0px" y="0px"
	 viewBox="0 0 128 128" style="enable-background:new 0 0 128 128;" xml:space="preserve">
<g id="_x31_">
	<path style="fill:#666666;" d="M96.721,58.994v27.94c0,3.285-2.663,5.948-5.948,5.948H27.429c-3.285,0-5.948-2.663-5.948-5.948
		V57.953c0.52,0.164,1.026,0.297,1.546,0.446c11.613,3.242,23.167,6.245,34.72,9.204c1.472,0.387,3.123,0.52,4.758,0.104
		L96.721,58.994z"/>
	<path style="fill:#FFCC0A;" d="M127.962,96.719c-0.019-0.113-0.076-0.225-0.092-0.337c-0.145-0.706-0.239-1.38-0.397-2.048
		c-0.457-1.893-2.035-4.424-1.541-7.222c1.005-5.784-2.561-8.308-5.721-8.308c-0.249,0-0.482,0.026-0.813,0.207l0.001-0.34
		c1.521-0.404,2.645-1.778,2.645-3.434c0-1.429-0.849-2.651-2.068-3.212V47.07h-2.974v24.953c-1.223,0.561-2.072,1.783-2.072,3.215
		c0,1.703,1.18,3.116,2.771,3.474l0.001,0.171c-0.306-0.047-0.611-0.078-0.939-0.078c-3.151,0-6.726,2.524-5.715,8.308
		c0.488,2.798-1.093,5.328-1.547,7.222c-0.161,0.668-0.255,1.342-0.397,2.048c-0.016,0.112-0.072,0.224-0.091,0.337
		c-0.025,0.156-0.035,0.318-0.035,0.491c0,0.98,0.454,1.778,1.033,1.778c0.574,0,1.037-0.798,1.037-1.778
		c0,0.98,0.463,1.778,1.039,1.778c0.492,0,0.904-0.586,1.005-1.371c0,0,0.041,0,0.06,0.008c0.113,0.777,0.52,1.362,1.014,1.362
		c0.457,0,0.841-0.515,0.977-1.221c0.051,0,0.082,0,0.123,0.008c0.129,0.703,0.523,1.213,0.973,1.213
		c0.463,0,0.838-0.496,0.98-1.194c0.044,0,0.085,0,0.117,0c0.148,0.698,0.532,1.194,0.983,1.194c0.057,0,0.107-0.006,0.167-0.025
		c0.054,0.019,0.114,0.025,0.158,0.025c0.454,0,0.851-0.496,0.983-1.194c0.044,0,0.085,0,0.123,0
		c0.145,0.698,0.526,1.194,0.977,1.194c0.46,0,0.835-0.51,0.98-1.213c0.041-0.008,0.088-0.008,0.123-0.008
		c0.135,0.706,0.52,1.221,0.97,1.221c0.501,0,0.898-0.586,1.011-1.362c0.022-0.008,0.047-0.008,0.047-0.008
		c0.126,0.785,0.536,1.371,1.024,1.371c0.57,0,1.049-0.798,1.049-1.778c0-0.014-0.009-0.022-0.009-0.025c0,0,0.009,0,0.009-0.008
		c0,0.011,0,0.019,0,0.033c0,0.98,0.457,1.778,1.03,1.778c0.58,0,1.036-0.798,1.036-1.778C128,97.037,127.987,96.875,127.962,96.719
		z"/>
	<path style="fill:#333333;" d="M119.591,48.704l-22.869,5.829l-34.215,8.714c-1.636,0.416-3.286,0.283-4.758-0.104
		c-11.554-2.959-23.107-5.963-34.72-9.204c-0.52-0.149-1.026-0.283-1.546-0.446c-6.677-1.859-13.383-3.836-20.119-5.918
		c-0.624-0.193-1.1-0.684-1.279-1.294c-0.312-1.026,0.283-2.111,1.309-2.409c2.721-0.803,5.487-1.695,8.342-2.424
		c15.36-3.97,30.721-7.97,46.14-11.777c1.294-0.327,2.706-0.565,4.134-0.639c0.178,0,0.357-0.015,0.535-0.015
		c1.264-0.03,2.543,0.074,3.777,0.387c18.394,4.61,36.758,9.472,55.404,15.583c0.625,0.208,1.1,0.714,1.264,1.353
		C121.256,47.38,120.632,48.436,119.591,48.704z"/>
</g>
<g id="Layer_1">
</g>
</svg>
