<svg xmlns="http://www.w3.org/2000/svg" xml:space="preserve" viewBox="0 0 512.002 512.002"><path d="m126.196 8.036 40.909 50.236h177.79l40.91-50.236z" style="fill:#5c6670"/><path d="M295.003 132.876h-77.998l-46.128 290.188 85.126 80.9 85.126-80.9z" style="fill:#0082ca"/><path d="m298.017 29.693 19.802 47.558-22.823 55.625h-77.991l-22.823-55.625 19.801-47.558z" style="fill:#0055b8"/><path d="M312.768 244.637 177.782 379.623l-4.295 27.025 142.399-142.397zm-15.48-97.382-98.176 98.175-4.295 27.025 105.589-105.588zm30.958 194.763L210.009 460.254l11.654 11.076 109.701-109.7z" style="fill:#e0e0d3"/><path d="M295.003 132.876h-77.998l-3.326 20.921h84.649z" style="opacity:.1"/><path d="M300.01 25.294c-6.079 1.632-11.28 2.022-8.86 7.833l34.06 61.753c2.42 5.81 7.619 5.119 11.863.017 0 0 50.979-54.27 56.502-68.29 4.691-11.909.327-20.459-11.053-18.207zM211.99 25.294c6.079 1.632 11.28 2.022 8.86 7.833L186.79 94.88c-2.42 5.81-7.619 5.119-11.863.017 0 0-50.979-54.27-56.502-68.29-4.691-11.909-.327-20.459 11.053-18.207z" style="fill:#e0e0d3"/><path d="M317.993 98.429c2.417 5.388 6.971 8.59 12.269 8.591h.002c4.56 0 9.104-2.406 12.82-6.783 9.032-9.619 52.209-56.06 57.97-70.686 3.449-8.756 3.212-16.715-.666-22.41-3.134-4.603-8.254-7.138-14.417-7.138-.055 0-.11.004-.165.004V0h-259.61v.021c-6.23-.027-11.423 2.48-14.581 7.12-3.879 5.696-4.114 13.655-.666 22.411 5.76 14.624 48.937 61.065 57.969 70.685 3.716 4.377 8.26 6.783 12.821 6.783 5.298 0 9.853-3.2 12.27-8.592l.101-.183 14.604 35.594-45.774 287.963a8.03 8.03 0 0 0 2.401 7.087l85.126 80.901a8 8 0 0 0 5.536 2.211 8.02 8.02 0 0 0 5.536-2.211l85.126-80.901a8.03 8.03 0 0 0 2.401-7.087L303.293 133.84l14.601-35.588zm67.976-82.355c.782 0 1.126.117 1.141.124.255.389.825 2.803-1.01 7.464-3.604 9.15-35.478 45.068-54.79 65.636l-30.796-55.834q.66-.165 1.339-.343l82.229-16.838a9.7 9.7 0 0 1 1.887-.209m-80.978-.002-6.592 1.35q-.238.049-.471.111c-.696.186-1.38.356-2.04.519-2.901.719-6.282 1.561-8.962 3.604h-61.851c-2.68-2.043-6.059-2.885-8.962-3.604-.66-.163-1.344-.333-2.04-.519a8 8 0 0 0-.471-.111l-6.592-1.35zM180.692 89.298c-36.307-38.661-52.876-60.777-54.791-65.636-1.857-4.717-1.251-7.132-1.076-7.41.003-.001.326-.178 1.205-.178.554 0 1.189.07 1.835.197l82.282 16.848q.68.179 1.339.343zM332.53 420.151l-76.527 72.728-76.527-72.728 44.387-279.239h64.28zm-42.917-295.31h-67.22l-18.322-44.656 23.418-42.456h57.023l23.421 42.462z" style="fill:#1e252b"/></svg>