<svg xmlns="http://www.w3.org/2000/svg" xml:space="preserve" width="800" height="800" viewBox="0 0 488 488"><circle cx="51.2" cy="244" r="51.2" style="fill:#7d38ce"/><path d="M51.2 295.2C23.2 295.2 0 272 0 244" style="fill:#8d4de8"/><path d="M102.4 244c0 28-23.2 51.2-51.2 51.2" style="fill:#6728bf"/><path d="M15.2 208c20-20 52-20 72 0s20 52 0 72" style="fill:#6728bf"/><circle cx="244" cy="244" r="51.2" style="fill:#7d38ce"/><path d="M244 295.2c-28 0-51.2-23.2-51.2-51.2" style="fill:#8d4de8"/><path d="M295.2 244c0 28-23.2 51.2-51.2 51.2" style="fill:#6728bf"/><path d="M208 208c20-20 52-20 72 0s20 52 0 72" style="fill:#6728bf"/><circle cx="436.8" cy="244" r="51.2" style="fill:#7d38ce"/><path d="M436.8 295.2c-28 0-51.2-23.2-51.2-51.2" style="fill:#8d4de8"/><path d="M488 244c0 28-23.2 51.2-51.2 51.2" style="fill:#6728bf"/><path d="M400.8 208c20-20 52-20 72 0s20 52 0 72" style="fill:#6728bf"/></svg>