<svg version="1.1" id="Layer_1" xmlns="http://www.w3.org/2000/svg" xmlns:xlink="http://www.w3.org/1999/xlink" x="0px" y="0px" viewBox="0 0 100 100" enable-background="new 0 0 100 100" xml:space="preserve">
<path d="M95,13.24H82.83v-8.1c0-0.55-0.45-1-1-1s-1,0.45-1,1v8.1H66.91v-8.1c0-0.55-0.45-1-1-1s-1,0.45-1,1v8.1H51v-8.1
	c0-0.55-0.45-1-1-1s-1,0.45-1,1v8.1H35.08v-8.1c0-0.55-0.45-1-1-1s-1,0.45-1,1v8.1H19.17v-8.1c0-0.55-0.45-1-1-1s-1,0.45-1,1v8.1H5
	c-0.55,0-1,0.45-1,1v80.63c0,0.55,0.45,1,1,1h90c0.55,0,1-0.45,1-1V14.24C96,13.68,95.55,13.24,95,13.24z M94,93.86H6V15.24h11.17v8
	c0,0.55,0.45,1,1,1s1-0.45,1-1v-8h13.92v8c0,0.55,0.45,1,1,1s1-0.45,1-1v-8H49v8c0,0.55,0.45,1,1,1s1-0.45,1-1v-8h13.92v8
	c0,0.55,0.45,1,1,1s1-0.45,1-1v-8h13.92v8c0,0.55,0.45,1,1,1s1-0.45,1-1v-8H94V93.86z" id="id_161" style="fill: rgb(255, 255, 255);"></path>
<path d="M14.57,33.93c-0.55,0-1,0.45-1,1s0.45,1,1,1h70.86c0.55,0,1-0.45,1-1s-0.45-1-1-1H14.57z" id="id_162" style="fill: rgb(255, 255, 255);"></path>
<path d="M28.43,47.99h-9.57c-0.55,0-1,0.45-1,1s0.45,1,1,1h9.57c0.55,0,1-0.45,1-1S28.98,47.99,28.43,47.99z" id="id_163" style="fill: rgb(255, 255, 255);"></path>
<path d="M54.78,47.99h-9.57c-0.55,0-1,0.45-1,1s0.45,1,1,1h9.57c0.55,0,1-0.45,1-1S55.34,47.99,54.78,47.99z" id="id_164" style="fill: rgb(255, 255, 255);"></path>
<path d="M81.14,47.99h-9.57c-0.55,0-1,0.45-1,1s0.45,1,1,1h9.57c0.55,0,1-0.45,1-1S81.69,47.99,81.14,47.99z" id="id_165" style="fill: rgb(255, 255, 255);"></path>
<path d="M28.43,63.12h-9.57c-0.55,0-1,0.45-1,1s0.45,1,1,1h9.57c0.55,0,1-0.45,1-1S28.98,63.12,28.43,63.12z" id="id_166" style="fill: rgb(255, 255, 255);"></path>
<path d="M54.78,63.12h-9.57c-0.55,0-1,0.45-1,1s0.45,1,1,1h9.57c0.55,0,1-0.45,1-1S55.34,63.12,54.78,63.12z" id="id_167" style="fill: rgb(255, 255, 255);"></path>
<path d="M81.14,63.12h-9.57c-0.55,0-1,0.45-1,1s0.45,1,1,1h9.57c0.55,0,1-0.45,1-1S81.69,63.12,81.14,63.12z" id="id_168" style="fill: rgb(255, 255, 255);"></path>
<path d="M28.43,78.25h-9.57c-0.55,0-1,0.45-1,1s0.45,1,1,1h9.57c0.55,0,1-0.45,1-1S28.98,78.25,28.43,78.25z" id="id_169" style="fill: rgb(255, 255, 255);"></path>
<path d="M54.78,78.25h-9.57c-0.55,0-1,0.45-1,1s0.45,1,1,1h9.57c0.55,0,1-0.45,1-1S55.34,78.25,54.78,78.25z" id="id_170" style="fill: rgb(255, 255, 255);"></path>
<path d="M81.14,78.25h-9.57c-0.55,0-1,0.45-1,1s0.45,1,1,1h9.57c0.55,0,1-0.45,1-1S81.69,78.25,81.14,78.25z" id="id_171" style="fill: rgb(255, 255, 255);"></path>
</svg>