<svg xmlns="http://www.w3.org/2000/svg" xml:space="preserve" width="2048" height="2048" style="shape-rendering:geometricPrecision;text-rendering:geometricPrecision;image-rendering:optimizeQuality;fill-rule:evenodd;clip-rule:evenodd"><defs><style>.fil1{fill:none}.fil6{fill:#b71c1c}.fil4,.fil5,.fil7{fill:#424242;fill-rule:nonzero}.fil4,.fil5{fill:#616161}.fil5{fill:#eee}</style></defs><g id="Layer_x0020_1"><path d="M1792 671.999v1044.74c0 20.678-8.543 39.477-22.3 53.108-13.739 13.608-32.606 22.055-53.287 22.055H331.583c-20.68 0-39.55-8.447-53.288-22.055-13.757-13.628-22.3-32.43-22.3-53.108V671.999h1536z" style="fill:#ffd180;fill-rule:nonzero"/><path d="M256 255.999h1536v1536H256z" class="fil1"/><path d="M0 0h2048v2048H0z" class="fil1"/><path d="M331.586 409.594h1384.83c20.681 0 39.547 8.448 53.286 22.056 13.76 13.63 22.301 32.433 22.301 53.107v226.858l-1536 .126V484.757c0-20.678 8.54-39.48 22.3-53.108 13.738-13.607 32.605-22.055 53.288-22.055z" style="fill:#c62828;fill-rule:nonzero"/><path d="M331.586 409.594h1384.83c20.681 0 39.547 8.448 53.286 22.056 13.76 13.63 22.301 32.433 22.301 53.107V672l-1536 .126V484.757c0-20.678 8.54-39.48 22.3-53.108 13.738-13.607 32.605-22.055 53.288-22.055z" style="fill:#e53935;fill-rule:nonzero"/><g id="_527586208"><path id="_527592568" d="M556.735 855.797H377.379v179.353h179.356z" class="fil4"/><path id="_527583304" d="M556.735 1142.27H377.379v179.36h179.356z" class="fil5"/><path id="_527591320" d="M556.735 1428.75H377.379v179.35h179.356z" class="fil5"/><path id="_527597152" d="M835.207 855.797H655.85v179.353h179.357z" class="fil5"/><path id="_527580184" d="M835.207 1142.27H655.85v179.36h179.357z" class="fil5"/><path id="_527584600" d="M835.207 1428.75H655.85v179.35h179.357z" class="fil4"/><path id="_527596192" d="M1113.68 855.797H934.321v179.353h179.359z" class="fil5"/><path id="_527596768" d="M1113.68 1142.27H934.321v179.36h179.359z" class="fil4"/><path id="_527585368" d="M1113.68 1428.75H934.321v179.35h179.359z" class="fil5"/><path id="_527589568" d="M1392.15 855.797h-179.36v179.353h179.36z" class="fil4"/><path id="_527595976" d="M1392.15 1142.27h-179.36v179.36h179.36z" class="fil5"/><path id="_527578072" d="M1392.15 1428.75h-179.36v179.35h179.36z" class="fil5"/><path id="_527595304" d="M1670.62 855.797h-179.36v179.353h179.36z" class="fil5"/><path id="_527606680" d="M1670.62 1142.27h-179.36v179.36h179.36z" class="fil5"/><path id="_527589928" d="M1670.62 1428.75h-179.36v179.35h179.36z" class="fil4"/></g><circle cx="587.773" cy="507.173" r="55.23" class="fil6"/><circle cx="1463.23" cy="507.173" r="55.23" class="fil6"/><g id="_527593696"><path id="_527578792" d="M626 287.999c0-22.091-17.91-40-40-40-22.092 0-40 17.909-40 40v192c0 22.091 17.908 40 40 40s40-17.909 40-40z" class="fil7"/><path id="_527583784" d="M1502 287.999c0-22.091-17.91-40-40-40-22.092 0-40 17.909-40 40v192c0 22.091 17.908 40 40 40s40-17.909 40-40z" class="fil7"/></g></g></svg>