<svg xmlns="http://www.w3.org/2000/svg" xml:space="preserve" width="512px" height="512px" version="1.1" style="shape-rendering:geometricPrecision; text-rendering:geometricPrecision; image-rendering:optimizeQuality; fill-rule:evenodd; clip-rule:evenodd" viewBox="0 0 512 512" xmlns:xlink="http://www.w3.org/1999/xlink">
 <defs>
  <style type="text/css">
   
    .fil0 {fill:black}
   
  </style>
 </defs>
 <g id="Layer_x0020_1">
  <metadata id="CorelCorpID_0Corel-Layer"></metadata>
  <g id="_536765064">
   <g>
    <path class="fil0" d="M413 471l-406 0c-4,0 -7,-3 -7,-7l0 -374c0,-4 3,-7 7,-7l72 0c4,0 7,3 7,7 0,4 -3,7 -7,7l-65 0 0 360 399 0c4,0 7,3 7,7 0,4 -3,7 -7,7zm27 -181c-4,0 -7,-3 -7,-7l0 -186 -66 0c-4,0 -7,-3 -7,-7 0,-4 3,-7 7,-7l73 0c4,0 7,3 7,7l0 193c0,4 -3,7 -7,7zm-108 -193l-91 0c-4,0 -7,-3 -7,-7 0,-4 3,-7 7,-7l91 0c4,0 7,3 7,7 0,4 -3,7 -7,7zm-126 0l-92 0c-4,0 -7,-3 -7,-7 0,-4 3,-7 7,-7l92 0c4,0 7,3 7,7 0,4 -3,7 -7,7z" id="id_172" style="fill: rgb(255, 255, 255);"></path>
   </g>
   <g>
    <path class="fil0" d="M440 176l-433 0c-4,0 -7,-3 -7,-7 0,-4 3,-7 7,-7l433 0c4,0 7,3 7,7 0,4 -3,7 -7,7z" id="id_173" style="fill: rgb(255, 255, 255);"></path>
   </g>
   <g>
    <path class="fil0" d="M104 136l-14 0c-10,0 -18,-8 -18,-18l0 -59c0,-10 8,-18 18,-18l14 0c10,0 17,8 17,18l0 59c0,10 -7,18 -17,18zm-14 -81c-2,0 -4,2 -4,4l0 59c0,2 2,4 4,4l14 0c2,0 3,-3 3,-4l0 -59c0,-1 -1,-4 -3,-4l-14 0z" id="id_174" style="fill: rgb(255, 255, 255);"></path>
   </g>
   <g>
    <path class="fil0" d="M230 136l-13 0c-10,0 -18,-8 -18,-18l0 -59c0,-10 8,-18 18,-18l13 0c10,0 18,8 18,18l0 59c0,10 -8,18 -18,18zm-13 -81c-2,0 -4,2 -4,4l0 59c0,2 2,4 4,4l13 0c2,0 4,-2 4,-4l0 -59c0,-2 -2,-4 -4,-4l-13 0z" id="id_175" style="fill: rgb(255, 255, 255);"></path>
   </g>
   <g>
    <path class="fil0" d="M357 136l-14 0c-10,0 -18,-8 -18,-18l0 -59c0,-10 8,-18 18,-18l14 0c9,0 17,8 17,18l0 59c0,10 -8,18 -17,18zm-14 -81c-2,0 -4,2 -4,4l0 59c0,2 2,4 4,4l14 0c2,0 3,-3 3,-4l0 -59c0,-1 -1,-4 -3,-4l-14 0z" id="id_176" style="fill: rgb(255, 255, 255);"></path>
   </g>
   <g>
    <path class="fil0" d="M110 264l-62 0c-4,0 -7,-3 -7,-7l0 -52c0,-4 3,-7 7,-7l62 0c4,0 7,3 7,7l0 52c0,3 -3,7 -7,7zm-55 -14l48 0 0 -38 -48 0 0 38z" id="id_177" style="fill: rgb(255, 255, 255);"></path>
   </g>
   <g>
    <path class="fil0" d="M110 349l-62 0c-4,0 -7,-3 -7,-7l0 -52c0,-4 3,-7 7,-7l62 0c4,0 7,3 7,7l0 52c0,3 -3,7 -7,7zm-55 -14l48 0 0 -38 -48 0 0 38z" id="id_178" style="fill: rgb(255, 255, 255);"></path>
   </g>
   <g>
    <path class="fil0" d="M110 435l-62 0c-4,0 -7,-3 -7,-7l0 -52c0,-4 3,-7 7,-7l62 0c4,0 7,3 7,7l0 52c0,3 -3,7 -7,7zm-55 -14l48 0 0 -38 -48 0 0 38z" id="id_179" style="fill: rgb(255, 255, 255);"></path>
   </g>
   <g>
    <path class="fil0" d="M227 264l-62 0c-4,0 -7,-3 -7,-7l0 -52c0,-4 3,-7 7,-7l62 0c4,0 7,3 7,7l0 52c0,3 -3,7 -7,7zm-55 -14l48 0 0 -38 -48 0 0 38z" id="id_180" style="fill: rgb(255, 255, 255);"></path>
   </g>
   <g>
    <path class="fil0" d="M227 349l-62 0c-4,0 -7,-3 -7,-7l0 -52c0,-4 3,-7 7,-7l62 0c4,0 7,3 7,7l0 52c0,3 -3,7 -7,7zm-55 -14l48 0 0 -38 -48 0 0 38z" id="id_181" style="fill: rgb(255, 255, 255);"></path>
   </g>
   <g>
    <path class="fil0" d="M227 435l-62 0c-4,0 -7,-3 -7,-7l0 -52c0,-4 3,-7 7,-7l62 0c4,0 7,3 7,7l0 52c0,3 -3,7 -7,7zm-55 -14l48 0 0 -38 -48 0 0 38z" id="id_182" style="fill: rgb(255, 255, 255);"></path>
   </g>
   <g>
    <path class="fil0" d="M344 264l-62 0c-4,0 -7,-3 -7,-7l0 -52c0,-4 3,-7 7,-7l62 0c4,0 7,3 7,7l0 52c0,3 -3,7 -7,7zm-55 -14l48 0 0 -38 -48 0 0 38z" id="id_183" style="fill: rgb(255, 255, 255);"></path>
   </g>
   <g>
    <path class="fil0" d="M413 471c-55,0 -99,-45 -99,-100 0,-26 10,-51 29,-70 19,-19 44,-29 70,-29 26,0 51,10 70,29 19,19 29,44 29,70 0,55 -44,100 -99,100zm0 -185c-47,0 -85,38 -85,85 0,47 38,86 85,86 47,0 85,-39 85,-86 0,-47 -38,-85 -85,-85z" id="id_184" style="fill: rgb(255, 255, 255);"></path>
   </g>
   <g>
    <path class="fil0" d="M413 303c-4,0 -7,-3 -7,-7l0 -17c0,-4 3,-7 7,-7 4,0 7,3 7,7l0 17c0,4 -3,7 -7,7z" id="id_185" style="fill: rgb(255, 255, 255);"></path>
   </g>
   <g>
    <path class="fil0" d="M466 325c-2,0 -4,-1 -5,-2 -3,-3 -3,-7 0,-10l12 -12c3,-3 7,-3 10,0 3,3 3,7 0,10l-12 12c-1,1 -3,2 -5,2z" id="id_186" style="fill: rgb(255, 255, 255);"></path>
   </g>
   <g>
    <path class="fil0" d="M505 378l-17 0c-4,0 -7,-3 -7,-7 0,-4 3,-7 7,-7l17 0c4,0 7,3 7,7 0,4 -3,7 -7,7z" id="id_187" style="fill: rgb(255, 255, 255);"></path>
   </g>
   <g>
    <path class="fil0" d="M478 444c-2,0 -4,-1 -5,-2l-12 -12c-3,-3 -3,-7 0,-10 3,-3 7,-3 10,0l12 12c3,3 3,7 0,10 -1,1 -3,2 -5,2z" id="id_188" style="fill: rgb(255, 255, 255);"></path>
   </g>
   <g>
    <path class="fil0" d="M413 471c-4,0 -7,-3 -7,-7l0 -17c0,-4 3,-7 7,-7 4,0 7,3 7,7l0 17c0,4 -3,7 -7,7z" id="id_189" style="fill: rgb(255, 255, 255);"></path>
   </g>
   <g>
    <path class="fil0" d="M348 444c-2,0 -4,-1 -5,-2 -3,-3 -3,-7 0,-10l12 -12c3,-3 7,-3 10,0 3,3 3,7 0,10l-12 12c-1,1 -3,2 -5,2z" id="id_190" style="fill: rgb(255, 255, 255);"></path>
   </g>
   <g>
    <path class="fil0" d="M338 378l-17 0c-4,0 -7,-3 -7,-7 0,-4 3,-7 7,-7l17 0c4,0 7,3 7,7 0,4 -3,7 -7,7z" id="id_191" style="fill: rgb(255, 255, 255);"></path>
   </g>
   <g>
    <path class="fil0" d="M360 325c-2,0 -4,-1 -5,-2l-12 -12c-3,-3 -3,-7 0,-10 3,-3 7,-3 10,0l12 12c3,3 3,7 0,10 -1,1 -3,2 -5,2z" id="id_192" style="fill: rgb(255, 255, 255);"></path>
   </g>
   <g>
    <path class="fil0" d="M413 367c-4,0 -7,-3 -7,-7l0 -40c0,-4 3,-7 7,-7 4,0 7,3 7,7l0 40c0,4 -3,7 -7,7z" id="id_193" style="fill: rgb(255, 255, 255);"></path>
   </g>
   <g>
    <path class="fil0" d="M438 403c-2,0 -4,-1 -5,-2l-17 -17c-3,-3 -3,-7 0,-10 3,-3 7,-3 10,0l17 17c3,3 3,7 0,10 -1,1 -3,2 -5,2z" id="id_194" style="fill: rgb(255, 255, 255);"></path>
   </g>
   <g>
    <path class="fil0" d="M413 390c-10,0 -18,-8 -18,-19 0,-10 8,-18 18,-18 10,0 18,8 18,18 0,11 -8,19 -18,19zm0 -23c-2,0 -4,2 -4,4 0,3 2,5 4,5 2,0 4,-2 4,-5 0,-2 -2,-4 -4,-4z" id="id_195" style="fill: rgb(255, 255, 255);"></path>
   </g>
  </g>
 </g>
</svg>