<svg xmlns="http://www.w3.org/2000/svg" xml:space="preserve" width="800" height="800" viewBox="0 0 503.467 503.467"><path d="M61.293 419.693c-5.973 5.973-14.507 10.24-23.893 10.24h102.4V105.667c0-18.773-15.36-34.133-34.133-34.133-9.387 0-17.92 3.413-23.893 10.24 5.973-5.973 14.507-10.24 23.893-10.24h256V3.267H3.267V395.8c0 18.773 15.36 34.133 34.133 34.133 9.387 0 17.92-3.413 23.893-10.24M498.2 105.667V498.2H139.8V105.667c0-18.773-15.36-34.133-34.133-34.133h358.4c18.773-.001 34.133 15.359 34.133 34.133" style="fill:#e4f2de" transform="translate(1 1)"/><path d="M208.067 327.533H242.2v-51.2h-34.133zm136.533 0h34.133V242.2H344.6zm-68.267 0h34.133V208.067h-34.133zm136.534 0H447V139.8h-34.133z" style="fill:#80d6fa" transform="translate(1 1)"/><path d="M499.2 503.467H140.8c-2.56 0-4.267-1.707-4.267-4.267v-64H89.6c-2.56 0-4.267-1.707-4.267-4.267s1.707-4.267 4.267-4.267h46.933v-320c0-16.213-13.653-29.867-29.867-29.867S76.8 90.453 76.8 106.667V396.8c0 21.333-17.067 38.4-38.4 38.4S0 418.133 0 396.8V4.267C0 1.707 1.707 0 4.267 0h358.4c2.56 0 4.267 1.707 4.267 4.267V38.4c0 2.56-1.707 4.267-4.267 4.267S358.4 40.96 358.4 38.4V8.533H8.533V396.8c0 16.213 13.653 29.867 29.867 29.867s29.867-13.653 29.867-29.867V106.667c0-21.333 17.067-38.4 38.4-38.4s38.4 17.067 38.4 38.4v388.267h349.867V106.667c0-16.213-13.653-29.867-29.867-29.867H166.4c-2.56 0-4.267-1.707-4.267-4.267s1.707-4.267 4.267-4.267h298.667c21.333 0 38.4 17.067 38.4 38.4V499.2c0 2.56-1.707 4.267-4.267 4.267M430.933 435.2H209.067c-2.56 0-4.267-1.707-4.267-4.267s1.707-4.267 4.267-4.267h221.867c2.56 0 4.267 1.707 4.267 4.267-.001 2.56-1.708 4.267-4.268 4.267M396.8 384h-51.2c-2.56 0-4.267-1.707-4.267-4.267s1.707-4.267 4.267-4.267h51.2c2.56 0 4.267 1.707 4.267 4.267S399.36 384 396.8 384m-85.333 0h-102.4c-2.56 0-4.267-1.707-4.267-4.267s1.707-4.267 4.267-4.267h102.4c2.56 0 4.267 1.707 4.267 4.267-.001 2.56-1.707 4.267-4.267 4.267m102.4-51.2h-34.133c-2.56 0-4.267-1.707-4.267-4.267v-81.067h-25.6v81.067c0 2.56-1.707 4.267-4.267 4.267h-34.133c-2.56 0-4.267-1.707-4.267-4.267v-115.2h-25.6v115.2c0 2.56-1.707 4.267-4.267 4.267H243.2c-2.56 0-4.267-1.707-4.267-4.267V281.6h-25.6v46.933c0 2.56-1.707 4.267-4.267 4.267s-4.267-1.707-4.267-4.267v-51.2c0-2.56 1.707-4.267 4.267-4.267H243.2c2.56 0 4.267 1.707 4.267 4.267v46.933h25.6v-115.2c0-2.56 1.707-4.267 4.267-4.267h34.133c2.56 0 4.267 1.707 4.267 4.267v115.2h25.6V243.2c0-2.56 1.707-4.267 4.267-4.267h34.133c2.56 0 4.267 1.707 4.267 4.267v81.067h25.6V140.8c0-2.56 1.707-4.267 4.267-4.267h17.067c2.56 0 4.267 1.707 4.267 4.267s-1.707 4.267-4.267 4.267h-12.8v183.467c-.002 2.559-1.708 4.266-4.268 4.266" style="fill:#51565f"/></svg>