<svg id="Layer_1" data-name="Layer 1" xmlns="http://www.w3.org/2000/svg" viewBox="0 0 128 128"><defs><style>.cls-1{fill:#3b4551;}.cls-2{fill:#2b77c0;}</style></defs><title>a</title><path class="cls-1" d="M125.98067,55.79533a4.71933,4.71933,0,0,0-4.70091-4.03526h-8.98381l-.53914-1.887a56.98849,56.98849,0,0,0-3.9952-9.70446l-.83922-1.681L113.049,32.361a4.76883,4.76883,0,0,0,.41023-6.27159A62.38842,62.38842,0,0,0,101.8834,14.601a4.78067,4.78067,0,0,0-6.28955.39259l-6.173,6.173L87.6864,20.15447a47.34946,47.34946,0,0,0-9.61036-3.924l-1.83866-.56457V6.83024a4.76528,4.76528,0,0,0-4.06387-4.70648A56.25742,56.25742,0,0,0,64,1.50086a60.76377,60.76377,0,0,0-8.20467.51847,4.71923,4.71923,0,0,0-4.03526,4.70091V15.7066l-1.88952.53914a57.20373,57.20373,0,0,0-9.707,3.99012l-1.67844.83922-6.127-6.12521a4.76865,4.76865,0,0,0-6.2708-.41007A62.26743,62.26743,0,0,0,14.59892,26.1166a4.78065,4.78065,0,0,0,.39354,6.28828l6.17416,6.17432L20.15447,40.3136a47.679,47.679,0,0,0-3.92654,9.60782l-.56711,1.83866H6.82992a4.76573,4.76573,0,0,0-4.70679,4.06562A56.41056,56.41056,0,0,0,1.50086,64a60.90885,60.90885,0,0,0,.51736,8.20323,4.71922,4.71922,0,0,0,4.70107,4.03669h8.98222l.53914,1.887a56.98849,56.98849,0,0,0,3.9952,9.70446l.83922,1.681L14.9486,95.63882a4.76866,4.76866,0,0,0-.41039,6.27159,62.38841,62.38841,0,0,0,11.57586,11.48844,4.78067,4.78067,0,0,0,6.28955-.39259l6.173-6.17289,1.73439,1.01215a47.52611,47.52611,0,0,0,9.61036,3.924l1.83866.56457v8.83551a4.76528,4.76528,0,0,0,4.06387,4.70648A56.25333,56.25333,0,0,0,64,126.49914a60.7377,60.7377,0,0,0,8.20212-.51863,4.71923,4.71923,0,0,0,4.03526-4.70091V112.2934l1.88952-.53914a57.20374,57.20374,0,0,0,9.707-3.99012l1.67844-.83922,6.127,6.12521a4.76883,4.76883,0,0,0,6.2708.40992,62.27131,62.27131,0,0,0,11.48844-11.57665A4.78067,4.78067,0,0,0,113.005,95.595l-6.17416-6.17416L107.843,87.6864a47.679,47.679,0,0,0,3.92654-9.60782l.56711-1.83866h8.832a4.76592,4.76592,0,0,0,4.70664-4.065A56.30751,56.30751,0,0,0,126.49914,64,60.76036,60.76036,0,0,0,125.98067,55.79533ZM64,98.54352A34.5436,34.5436,0,1,1,98.54352,64,34.54355,34.54355,0,0,1,64,98.54352Z" id="id_105" style="fill: rgb(255, 255, 255);"></path><path class="cls-2" d="M86.44823,71.81,74.15681,68.52878,64.52149,75.56l-9.375-7.03119-13.0987,3.3073a3.84947,3.84947,0,0,0-2.76037,2.89055l-.625,4.66134a29.62007,29.62007,0,0,0,50.98877-.54677l-.46872-4.06244A3.76062,3.76062,0,0,0,86.44823,71.81Z" id="id_106" style="fill: rgb(255, 255, 255);"></path><path class="cls-2" d="M62.62943,65.181c.44329.02829,2.5493.03672,3.10576-.03513,6.20563-.80139,9.64644-11.69284,9.64644-17.46138a11.38171,11.38171,0,1,0-22.76342,0C52.61821,53.56488,56.194,64.76945,62.62943,65.181Z" id="id_107" style="fill: rgb(255, 255, 255);"></path></svg>