<svg xmlns="http://www.w3.org/2000/svg" xml:space="preserve" viewBox="0 0 511.999 511.999"><path d="M320.698 324.797h-15.544l-25.666 46.322-23.364-15.209-23.366 15.209-25.663-46.322h-15.547c-26.749 0-48.43 21.683-48.43 48.43v46.09c32.074 22.242 70.98 35.294 112.882 35.294 42.007 0 81.005-13.114 113.128-35.457v-45.927c.001-26.747-21.68-48.43-48.43-48.43" style="fill:#9ea8b2"/><g style="opacity:.1"><path d="M167.991 373.227c0-23.716 17.05-43.436 39.56-47.605l-.457-.825h-15.546c-26.749 0-48.43 21.683-48.43 48.43v46.09a199 199 0 0 0 24.873 14.695z" style="fill:#231f20"/></g><path d="m231.252 315.721 24.873 40.189-23.367 15.209-25.853-46.66zM280.997 315.721l-24.872 40.189 23.364 15.209 25.853-46.66z" style="fill:#c3cad1"/><path d="m240.334 366.187 15.791 26.279 15.788-26.279-15.788-10.277z" style="fill:#5d6a7c"/><path d="M195.442 196.534c1.792 0 3.53.225 5.205.616v-7.296c53.24 11.697 84.192-21.835 84.192-21.835l26.762 21.835v7.296a23 23 0 0 1 5.205-.616c5.826 0 11.128 2.192 15.169 5.777v-24.416c0-39.428-31.965-71.39-71.391-71.39h-8.923c-39.426 0-71.39 31.963-71.39 71.39v24.414c4.042-3.583 9.344-5.775 15.171-5.775" style="fill:#77614a"/><g style="opacity:.1"><path d="M205.616 177.895c0-36.648 27.625-66.831 63.179-70.905a72 72 0 0 0-8.21-.485h-8.923c-39.426 0-71.39 31.963-71.39 71.39v24.414c4.042-3.583 9.344-5.775 15.169-5.775 1.792 0 3.53.225 5.205.616v-7.296q2.518.553 4.969.974z" style="fill:#231f20"/></g><path d="M200.647 189.854v59.427c0 29.809 24.168 53.972 53.97 53.972h3.011c29.804 0 53.973-24.164 53.973-53.972v-59.427l-26.762-21.835s-30.953 33.532-84.192 21.835" style="fill:#fccf8b"/><g style="opacity:.1"><path d="M226.039 249.281v-57.004c-7.779.259-16.257-.417-25.392-2.424v59.427c0 29.809 24.168 53.972 53.97 53.972h3.011c3.838 0 7.579-.407 11.191-1.17-24.434-5.152-42.78-26.831-42.78-52.801" style="fill:#231f20"/></g><path d="M200.647 197.15a23 23 0 0 0-5.205-.616c-12.649 0-22.906 10.255-22.906 22.904s10.256 22.904 22.906 22.904c1.792 0 3.53-.227 5.205-.616zM311.601 197.15a23 23 0 0 1 5.205-.616c12.649 0 22.904 10.255 22.904 22.904s-10.255 22.904-22.904 22.904c-1.792 0-3.53-.227-5.205-.616zM280.997 315.721l-4.126-16.013a53.8 53.8 0 0 1-19.244 3.545h-3.011a53.8 53.8 0 0 1-19.24-3.545l-4.124 16.013 24.873 40.19z" style="fill:#eab875"/><path d="M437.502 401.761c22.063-27.424 38.051-59.933 45.905-95.461h-35.254C425.823 391.538 348.141 454.612 256 454.612c-90.331 0-166.757-60.622-190.765-143.315l27.616-10.54-70.477-57.401-14.295 89.762 25.047-9.562C62.151 419.129 151.069 488.892 256 488.892c64.46 0 122.884-26.326 165.089-68.79" style="fill:#5d6a7c"/><path d="M74.497 110.238c-22.063 27.424-38.053 59.933-45.905 95.461h35.254C86.176 120.46 163.857 57.387 255.998 57.387c90.331 0 166.757 60.622 190.765 143.315l-27.616 10.54 70.477 57.401 14.297-89.764-25.047 9.562C449.847 92.87 360.93 23.105 255.998 23.105c-64.462 0-122.884 26.326-165.089 68.79" style="fill:#6ac6d8"/><path d="M483.407 298.221h-35.254a8.08 8.08 0 0 0-7.815 6.032c-10.426 39.797-33.013 73.886-63.131 98.715v-29.741c0-31.159-25.35-56.509-56.509-56.509h-13.006l-19.939-7.157-1.37-5.32c19.494-10.241 32.898-30.54 33.272-53.958 15.753-1.443 28.133-14.723 28.133-30.846 0-7.83-2.926-14.986-7.734-20.446v-21.095c0-43.82-35.65-79.469-79.47-79.469h-8.923c-43.82 0-79.469 35.65-79.469 79.469v21.093c-4.81 5.46-7.737 12.617-7.737 20.449 0 16.124 12.381 29.402 28.136 30.846.374 23.42 13.779 43.72 33.273 53.959l-1.369 5.318-19.941 7.157h-13.005c-31.159 0-56.509 25.35-56.509 56.509v29.658c-27.163-22.341-48.287-52.137-59.833-86.746l20.527-7.835a8.08 8.08 0 0 0 2.22-13.812l-70.477-57.401a8.077 8.077 0 0 0-13.079 4.994L.101 331.848a8.077 8.077 0 0 0 10.859 8.819l17.104-6.53c15.545 45.107 44.838 85.474 83.171 114.379 42.041 31.701 92.101 48.456 144.766 48.456 64.537 0 125.203-25.277 170.818-71.174a8.08 8.08 0 0 0-.034-11.425 8.08 8.08 0 0 0-11.425.034c-42.562 42.823-99.156 66.407-159.359 66.407-98.135 0-186.604-65.632-215.144-159.605a8.08 8.08 0 0 0-4.176-4.908 8.07 8.07 0 0 0-6.436-.292l-11.989 4.577 9.893-62.11 48.764 39.717-14.557 5.556a8.08 8.08 0 0 0-4.877 9.8c12.227 42.117 38.283 80.058 73.366 106.837 32.021 24.44 69.517 38.698 109.26 41.699q.315.023.63.044c1.074.078 2.149.152 3.226.213.423.025.848.042 1.271.065.888.045 1.775.092 2.666.126.693.027 1.387.043 2.081.063.644.018 1.288.042 1.934.055a206 206 0 0 0 8.246-.002c.36-.008.719-.022 1.077-.03 1.04-.026 2.078-.055 3.114-.097.358-.014.714-.034 1.071-.051q1.58-.069 3.156-.163.443-.029.888-.059a201 201 0 0 0 7.729-.644l.233-.024a204.7 204.7 0 0 0 63.685-17.237l.327-.149q1.476-.673 2.941-1.369.65-.309 1.296-.62.918-.444 1.831-.897a200 200 0 0 0 2.978-1.505c49.186-25.321 87.479-69.97 103.804-125.424h18.816c-8.058 29.833-22.429 58.116-41.901 82.318a8.08 8.08 0 0 0 12.59 10.129c23.149-28.772 39.573-62.93 47.499-98.781a8.083 8.083 0 0 0-7.886-9.825m-255.583 27.314 17.274 27.912-9.171 5.97-.01.008-.295.193-17.044-30.763zm28.301 40.016 4.85 3.157-4.85 8.072-4.851-8.072zm20.502-5.934-9.476-6.168 17.275-27.913 9.245 3.319zm43.053-125.635v-29.076a14.84 14.84 0 0 1 6.935 3.449c.037.032.075.059.113.09 3.004 2.715 4.903 6.632 4.903 10.992-.001 7.192-5.147 13.204-11.951 14.545m-131.328-56.087c0-34.91 28.401-63.311 63.311-63.311h8.923c34.91 0 63.312 28.401 63.312 63.311v11.385q-.038-.007-.074-.015a31 31 0 0 0-2.041-.406l-.037-.006a32 32 0 0 0-2.057-.26c-.036-.003-.071-.01-.108-.013-.017-.11-.045-.218-.068-.326q-.026-.138-.057-.275a9 9 0 0 0-.181-.636c-.017-.052-.029-.104-.047-.155a8 8 0 0 0-.31-.758c-.03-.066-.067-.127-.099-.192a6.581 6.581 0 0 0-.444-.774 8 8 0 0 0-.494-.683 8 8 0 0 0-.378-.432c-.059-.064-.115-.129-.177-.191a8 8 0 0 0-.617-.563l-26.762-21.835a8.074 8.074 0 0 0-10.927.665c-.031.031-.065.059-.095.092-.204.218-20.804 21.737-56.06 21.737-6.681 0-13.573-.77-20.485-2.289a8.08 8.08 0 0 0-6.796 1.594q-.328.267-.624.562c-.065.065-.124.132-.186.198a8 8 0 0 0-.375.424q-.098.12-.19.243a7 7 0 0 0-.31.442q-.083.125-.162.252-.152.255-.285.52-.055.104-.108.208a8 8 0 0 0-.315.762c-.017.048-.029.099-.045.148a8 8 0 0 0-.186.648q-.031.138-.057.277c-.023.112-.052.223-.07.336q-.053.006-.107.013-1.04.097-2.059.26l-.032.005c-.692.112-1.373.251-2.049.407l-.07.014zm-7.737 41.542c0-4.375 1.912-8.304 4.935-11.02.026-.023.056-.039.082-.062a14.83 14.83 0 0 1 6.935-3.449v29.076c-6.804-1.341-11.952-7.353-11.952-14.545m28.111 29.844v-49.814c.68.089 1.357.158 2.036.235.464.053.93.114 1.394.16.753.075 1.504.131 2.255.192.446.036.893.081 1.338.111.814.055 1.626.089 2.437.125.378.017.757.044 1.134.057q1.78.06 3.545.061c31.256 0 52.669-13.906 62.25-21.739l18.407 15.017v55.593c0 19.66-12.431 36.468-29.844 42.99q-.472.174-.948.337-.536.19-1.078.365-.51.162-1.022.312a45.185 45.185 0 0 1-3.214.827q-.498.109-.996.207-.596.116-1.2.214c-.317.053-.633.107-.951.153-.432.063-.867.115-1.303.166-.294.034-.587.072-.882.1-.489.047-.982.081-1.476.113-.247.016-.493.039-.74.051q-1.113.055-2.238.057h-3.011a47 47 0 0 1-2.237-.057c-.251-.012-.5-.034-.75-.051a44 44 0 0 1-1.462-.112c-.302-.029-.601-.068-.902-.103-.428-.05-.855-.101-1.279-.163a54.234 54.234 0 0 1-2.143-.365 51 51 0 0 1-2.109-.463 46 46 0 0 1-1.074-.275 55 55 0 0 1-2.091-.618 56 56 0 0 1-1.002-.339 43 43 0 0 1-1.022-.364c-17.403-6.527-29.822-23.327-29.822-42.98m34.843 61.047c.397.072.793.15 1.192.213.693.111 1.392.2 2.091.288.39.05.778.108 1.169.149.753.08 1.513.135 2.274.186.337.024.673.059 1.011.078 1.097.058 2.2.091 3.311.091h3.011a62 62 0 0 0 3.31-.091c.345-.018.686-.055 1.031-.079a64 64 0 0 0 2.254-.185c.397-.042.793-.101 1.189-.152a64 64 0 0 0 2.071-.285c.403-.065.803-.143 1.203-.215.681-.123 1.359-.25 2.033-.395.141-.03.283-.052.424-.083l1.173 4.55-16.189 26.159-5.556-8.977-10.633-17.18 1.172-4.55c.14.031.283.052.423.082.673.145 1.353.272 2.036.396m-92.371 62.899c0-22.25 18.101-40.351 40.351-40.351h10.784l23.358 42.159a8.08 8.08 0 0 0 5.116 3.925q.45.109.906.167c.097.013.194.017.292.026a9 9 0 0 0 .619.038c.045.001.089.009.134.009.057 0 .113-.011.171-.012q.409-.009.812-.058c.083-.01.165-.016.248-.029q.505-.077.996-.218c.073-.021.143-.048.217-.071a8 8 0 0 0 .78-.293q.134-.058.266-.12c.315-.151.623-.315.919-.506l.557-.363 11.477 19.099a8.08 8.08 0 0 0 13.85-.001l11.474-19.099.557.362c.295.192.603.355.918.506q.133.063.268.121.381.166.777.292c.073.024.145.052.219.072q.49.14.993.218c.084.013.168.019.252.029q.402.05.808.058c.057.001.114.013.172.013.045 0 .089-.008.135-.009q.308-.006.618-.038c.098-.01.195-.014.293-.026.304-.04.606-.093.906-.167a8.08 8.08 0 0 0 5.116-3.925l23.359-42.159H320.7c22.25 0 40.351 18.101 40.351 40.351v41.649a191 191 0 0 1-22.733 12.936c-.642.308-1.283.619-1.928.921q-.295.136-.59.271-.32.145-.639.289v-49.541a8.08 8.08 0 0 0-8.079-8.079 8.08 8.08 0 0 0-8.079 8.079v56.058a189.8 189.8 0 0 1-46.697 10.023l-.521.043a188 188 0 0 1-6.973.446q-.551.027-1.102.051-1.4.055-2.805.088c-.358.009-.715.023-1.074.029q-1.91.04-3.827.041-1.873 0-3.739-.038c-.182-.003-.364-.011-.547-.015a183 183 0 0 1-3.317-.101l-.137-.006a188.7 188.7 0 0 1-55.011-10.605v-56.013a8.08 8.08 0 0 0-8.079-8.079 8.08 8.08 0 0 0-8.079 8.079v49.465a192.5 192.5 0 0 1-25.893-14.394v-41.599h-.004z" style="fill:#231f20"/><path d="M509.013 172.608a8.08 8.08 0 0 0-7.974-1.276l-17.104 6.53c-15.545-45.107-44.838-85.474-83.171-114.379-42.041-31.701-92.101-48.456-144.766-48.456-64.537 0-125.203 25.277-170.818 71.174a8.08 8.08 0 0 0 11.459 11.391c42.563-42.822 99.157-66.407 159.359-66.407 98.135 0 186.604 65.632 215.144 159.606a8.082 8.082 0 0 0 10.612 5.2l11.989-4.577-9.893 62.11-48.764-39.717 14.557-5.556a8.077 8.077 0 0 0 4.877-9.8c-12.227-42.117-38.283-80.058-73.366-106.837-36.26-27.676-79.539-42.304-125.156-42.304-91.838 0-172.491 60.673-198.291 148.312H38.891c8.054-29.83 22.426-58.113 41.9-82.318a8.08 8.08 0 0 0-12.59-10.128c-23.151 28.777-39.577 62.935-47.499 98.782a8.081 8.081 0 0 0 7.89 9.821h35.255a8.08 8.08 0 0 0 7.815-6.032c21.946-83.771 97.749-142.28 184.337-142.28 81.765 0 155.059 53.254 180.794 130.394l-20.527 7.836a8.08 8.08 0 0 0-2.22 13.812l70.477 57.401a8.08 8.08 0 0 0 7.983 1.284 8.08 8.08 0 0 0 5.096-6.277l14.296-89.764a8.08 8.08 0 0 0-2.885-7.545" style="fill:#231f20"/></svg>