<svg xmlns="http://www.w3.org/2000/svg" xml:space="preserve" viewBox="0 0 512.4 512.4"><path d="M49.464 355.072V36.832h413.472v318.24" style="fill:#e04f5f"/><path d="M159.208 426.656h193.92v16h-193.92z"/><path d="m159.7 512.373-30.945-8.157 31.984-121.335 30.945 8.157zM352.754 512.416 320.76 391.102l30.94-8.16 31.993 121.314zM240.2 0h32v42h-32z"/><path d="M144.408 234.096h-14.96v-56.4c-5.472 5.104-11.92 8.896-19.344 11.344v-13.584c3.904-1.28 8.16-3.696 12.736-7.264 4.576-3.584 7.712-7.728 9.424-12.496h12.144zM187.128 222.864V202.56H166.68v-14h20.448v-20.304h13.632v20.304h20.512v14H200.76v20.304zM281.016 220.192v13.904h-52.448c.56-5.248 2.272-10.24 5.104-14.944s8.448-10.96 16.832-18.72c6.752-6.304 10.896-10.544 12.4-12.784 2.064-3.088 3.088-6.144 3.088-9.168q0-4.992-2.688-7.68c-2.688-2.688-4.272-2.688-7.44-2.688-3.104 0-5.616.944-7.456 2.816-1.84 1.888-2.912 5.008-3.184 9.376l-14.928-1.488c.896-8.24 3.68-14.16 8.352-17.728 4.688-3.6 10.544-5.392 17.584-5.392 7.696 0 13.76 2.08 18.176 6.24 4.384 4.16 6.592 9.328 6.592 15.504 0 3.52-.624 6.864-1.888 10.048-1.248 3.168-3.248 6.496-5.984 9.984-1.808 2.32-5.072 5.632-9.792 9.952-4.736 4.336-7.712 7.216-8.992 8.624-1.248 1.424-2.288 2.816-3.056 4.16h29.728zM291.032 190.64v-13.744h54.592v13.744zm0 23.648v-13.792h54.592v13.792zM354.296 213.376l14.496-1.744c.448 3.68 1.696 6.512 3.712 8.464 2.032 1.952 4.48 2.928 7.36 2.928 3.072 0 5.68-1.168 7.792-3.52s3.168-5.504 3.168-9.488c0-3.76-1.008-6.736-3.024-8.944-2.032-2.208-4.496-3.312-7.408-3.312-1.92 0-4.224.368-6.88 1.12l1.664-12.208c4.048.112 7.12-.768 9.264-2.624 2.128-1.872 3.184-4.336 3.184-7.44 0-2.624-.784-4.72-2.336-6.288s-3.648-2.336-6.224-2.336c-2.56 0-4.752.896-6.56 2.656-1.808 1.776-2.912 4.368-3.296 7.776l-13.792-2.336c.96-4.72 2.4-8.496 4.336-11.312 1.936-2.832 4.624-5.04 8.096-6.656 3.472-1.632 7.344-2.432 11.648-2.432 7.344 0 13.232 2.336 17.664 7.024 3.664 3.84 5.504 8.176 5.504 12.992 0 6.864-3.744 12.336-11.248 16.4 4.48.96 8.064 3.104 10.736 6.432q4.032 5.016 4.032 12.096c0 6.864-2.512 12.704-7.52 17.536s-11.232 7.232-18.704 7.232c-7.056 0-12.928-2.032-17.568-6.096-4.64-4.032-7.344-9.36-8.096-15.92" style="fill:#fff"/><path d="M.2 346.816h512v48H.2z" style="fill:#25b6d2"/></svg>