<?xml version="1.0" encoding="iso-8859-1"?>
<!-- Uploaded to: SVG Repo, www.svgrepo.com, Generator: SVG Repo Mixer Tools -->
<svg version="1.1" id="Layer_1" xmlns="http://www.w3.org/2000/svg" xmlns:xlink="http://www.w3.org/1999/xlink" 
	 viewBox="0 0 493.6 493.6" xml:space="preserve">
<circle style="fill:#FC7E29;" cx="221.6" cy="246" r="221.6"/>
<path style="fill:#DD600B;" d="M378.4,89.2c86.4,86.4,86.4,227.2,0,313.6s-227.2,86.4-313.6,0"/>
<rect x="381.6" y="270" style="fill:#EDE9D9;" width="112" height="24"/>
<g>
	<polygon style="fill:#D8D2BA;" points="493.6,294 381.6,294 381.6,274.8 452,286.8 	"/>
	<path style="fill:#D8D2BA;" d="M325.6,458c0,6.4-5.6,12-12,12h-176c-6.4,0-12-5.6-12-12l0,0c0-6.4,5.6-12,12-12h176
		C320,446,325.6,451.6,325.6,458L325.6,458z"/>
</g>
<ellipse style="fill:#EDE9D9;" cx="225.6" cy="441.2" rx="221.6" ry="14.4"/>
<path style="fill:#D8D2BA;" d="M225.6,426.8c122.4,0,221.6,6.4,221.6,14.4s-99.2,14.4-221.6,14.4"/>
<g>
	<path style="fill:#FFFCEE;" d="M45.6,206v85.6c0,79.2,63.2,146.4,141.6,146.4h64c79.2,0,146.4-67.2,146.4-146.4V206H45.6z"/>
	<path style="fill:#FFFCEE;" d="M165.6,154.8c0,4-4,8-8,8l0,0c-4,0-8-3.2-8-8V78c0-4,4-8,8-8l0,0c4,0,8,3.2,8,8V154.8z"/>
	<path style="fill:#FFFCEE;" d="M229.6,108.4c0,4-4,8-8,8l0,0c-4,0-8-3.2-8-8V31.6c0-4,4-8,8-8l0,0c4,0,8,3.2,8,8V108.4z"/>
	<path style="fill:#FFFCEE;" d="M285.6,154.8c0,4-4,8-8,8l0,0c-4,0-8-3.2-8-8V78c0-4,4-8,8-8l0,0c4,0,8,3.2,8,8V154.8z"/>
</g>
<path style="fill:#EDE9D9;" d="M189.6,438H252c78.4,0,145.6-67.2,145.6-146.4V206h-232"/>
<path style="fill:#D8D2BA;" d="M189.6,438H252c78.4,0,145.6-67.2,145.6-146.4V206h-64"/>
<path style="fill:#FFFCEE;" d="M461.6,270h29.6c-12-40-54.4-63.2-94.4-64v24C421.6,230,451.2,246,461.6,270z"/>
<path d="M397.6,206c0,3.2-82.4,5.6-177.6,5.6c-96,0-174.4-2.4-174.4-5.6s78.4-4.8,174.4-4.8C315.2,201.2,397.6,202.8,397.6,206z"/>
<rect x="85.6" y="254" width="88" height="104"/>
<polyline style="fill:#3A3428;" points="85.6,254 173.6,254 173.6,358 "/>
<path style="fill:#F2B233;" d="M133.6,242c0,3.2-1.6,6.4-4,6.4l0,0c-2.4,0-4-3.2-4-6.4v-29.6c0-3.2,1.6-6.4,4-6.4l0,0
	c2.4,0,4,3.2,4,6.4V242z"/>
<path style="fill:#82C60A;" d="M102.4,263.6L102.4,263.6L102.4,263.6L102.4,263.6c5.6,25.6-12.8,44,4.8,67.2
	c10.4,12.8,28,12.8,48,10.4l0,0l0,0l0,0c8.8-17.6,16-34.4,7.2-48.8C148,268.4,124,278.8,102.4,263.6z"/>
<path style="fill:#5EA304;" d="M155.2,342L155.2,342L155.2,342L155.2,342c9.6-17.6,16-34.4,8-48.8c-14.4-24.8-39.2-15.2-60.8-29.6
	l0,0l0,0l0,0"/>
<g>
	<polygon style="fill:#74B208;" points="125.6,298.8 108,298.8 128.8,302.8 132.8,282 	"/>
	<polygon style="fill:#74B208;" points="143.2,324.4 125.6,325.2 146.4,329.2 150.4,308.4 	"/>
	<polygon style="fill:#74B208;" points="134.4,311.6 114.4,311.6 137.6,316.4 142.4,293.2 	"/>
</g>
<ellipse transform="matrix(-0.0359 -0.9994 0.9994 -0.0359 -346.5229 541.7534)" style="fill:#FFFCEE;" cx="88.047" cy="438.018" rx="4.8" ry="51.202"/>
</svg>