<svg height="557pt" viewBox="-17 -27 557.33331 557" width="557pt" xmlns="http://www.w3.org/2000/svg"><path d="m86.25 502.625h350c20.007812-.023438 36.226562-16.242188 36.25-36.25v-1.875h38.75c6.210938 0 11.25-5.039062 11.25-11.25s-5.039062-11.25-11.25-11.25h-500c-6.210938 0-11.25 5.039062-11.25 11.25s5.039062 11.25 11.25 11.25h38.75v1.875c.023438 20.007812 16.242188 36.226562 36.25 36.25zm363.75-38.125v1.875c-.007812 7.585938-6.164062 13.738281-13.75 13.75h-350c-7.585938-.011719-13.742188-6.164062-13.75-13.75v-1.875zm0 0" id="id_111" style="fill: rgb(255, 255, 255);"></path><path d="m52.5 241.375c0 109.589844 89.160156 198.75 198.75 198.75 62.132812-.003906 120.679688-29.09375 158.210938-78.605469h49.289062c33.8125-.039062 61.210938-27.441406 61.25-61.25v-75c0-6.214843-5.039062-11.25-11.25-11.25h-58.75v-22.644531c0-6.210938-5.039062-11.25-11.25-11.25h-375c-6.210938 0-11.25 5.039062-11.25 11.25zm198.75 176.25c-80.5 0-148.578125-54.257812-169.570312-128.125h163.75v81.875c0 6.210938 5.035156 11.25 11.25 11.25h87.5c6.210937 0 11.25-5.039062 11.25-11.25v-81.875h65.394531c-20.996094 73.867188-89.074219 128.125-169.574219 128.125zm51.25-129.375c6.210938 0 11.25-5.039062 11.25-11.25v-12.796875l19.175781 17.195313v78.726562h-65v-78.429688l23.324219-19.148437v14.453125c0 6.210938 5.039062 11.25 11.25 11.25zm195-51.730469v63.75c-.023438 21.394531-17.359375 38.726563-38.75 38.75h-34.445312c16.882812-29.773437 25.734374-63.421875 25.695312-97.644531v-4.855469zm-70 4.855469c-.003906 8.574219-.628906 17.136719-1.875 25.625h-75.054688l-36.820312-33.023438v-31.351562h113.75zm-352.5-38.75h216.25v30.816406l-40.882812 33.558594h-173.492188c-1.246094-8.488281-1.871094-17.050781-1.875-25.625zm0 0" id="id_112" style="fill: rgb(255, 255, 255);"></path><path d="m251.25-.5c-6.210938 0-11.25 5.039062-11.25 11.25v116.25c0 6.210938 5.039062 11.25 11.25 11.25s11.25-5.039062 11.25-11.25v-116.25c0-6.210938-5.039062-11.25-11.25-11.25zm0 0" id="id_113" style="fill: rgb(255, 255, 255);"></path><path d="m326.25 138.25c6.210938 0 11.25-5.039062 11.25-11.25v-78.75c0-6.210938-5.039062-11.25-11.25-11.25s-11.25 5.039062-11.25 11.25v78.75c0 6.210938 5.039062 11.25 11.25 11.25zm0 0" id="id_114" style="fill: rgb(255, 255, 255);"></path><path d="m165 48.25v78.75c0 6.210938 5.039062 11.25 11.25 11.25s11.25-5.039062 11.25-11.25v-78.75c0-6.210938-5.039062-11.25-11.25-11.25s-11.25 5.039062-11.25 11.25zm0 0" id="id_115" style="fill: rgb(255, 255, 255);"></path></svg>